<svg xmlns="http://www.w3.org/2000/svg" width="20" height="20" viewBox="0 0 48 48">
  <path fill="#EA4335" d="M24 9.5c3.1 0 5.2 1.3 6.4 2.4l4.7-4.7C31.7 4 28.2 2.5 24 2.5 15.9 2.5 9.1 7.6 6.6 14.1l5.5 4.3C13.1 13.5 18.1 9.5 24 9.5z"></path>
  <path fill="#4285F4" d="M46.1 24.5c0-1.6-.1-2.7-.4-4H24v7.6h12.5c-.3 2-1.8 5-5.2 7l8 6.2c4.6-4.2 6.8-10.4 6.8-16.8z"></path>
  <path fill="#FBBC05" d="M6.6 14.1C5.6 16.4 5 18.9 5 21.5s.6 5.1 1.6 7.4l5.5-4.3c-.6-1.4-1-2.9-1-4.4s.3-3 1-4.4l-5.5-4.3z"></path>
  <path fill="#34A853" d="M24 44.5c5.7 0 10.6-1.9 14.1-5.2l-8-6.2c-2.2 1.5-5.1 2.4-8.1 2.4-5.9 0-10.9-4-12.7-9.3l-5.5 4.3C9.1 40.4 15.9 44.5 24 44.5z"></path>
  <path fill="none" d="M0 0h48v48H0z"></path>
</svg>
